<svg xmlns="http://www.w3.org/2000/svg" width="25.391" height="33.432" viewBox="0 0 25.391 33.432">
  <path id="Path_625" data-name="Path 625" d="M45.726,17.07a4.658,4.658,0,0,0-4.606,4.02H25.633a.635.635,0,0,0-.635.635L24.99,49.867a.634.634,0,0,0,.635.635h20.1a4.66,4.66,0,0,0,4.655-4.655V21.725A4.66,4.66,0,0,0,45.726,17.07Zm0,32.163H26.259l.008-26.873h14.8v2.751H29.631a.635.635,0,0,0,0,1.269h11.44v3H29.631a.635.635,0,1,0,0,1.269h11.44v3H29.631a.635.635,0,0,0,0,1.269h11.44v3H29.631a.635.635,0,0,0,0,1.269h11.44v3H29.631a.635.635,0,0,0,0,1.269h11.44v2.381a.635.635,0,0,0,1.269,0,3.386,3.386,0,1,1,3.386,3.386Zm0-8.041a4.637,4.637,0,0,0-3.386,1.471V21.725a3.386,3.386,0,0,1,6.772,0V42.663A4.637,4.637,0,0,0,45.726,41.192Z" transform="translate(-24.99 -17.07)" fill="#404040"/>
</svg>
